<?xml version="1.0" encoding="UTF-8"?>
<svg id="Layer_1" data-name="Layer 1" xmlns="http://www.w3.org/2000/svg" xmlns:xlink="http://www.w3.org/1999/xlink" viewBox="0 0 1040.26 1040.26">
  <defs>
    <style>
      .cls-1 {
        fill: url(#linear-gradient);
      }
    </style>
    <linearGradient id="linear-gradient" x1=".13" y1="520.13" x2="1040.13" y2="520.13" gradientTransform="translate(250.54 -164.26) rotate(23.5)" gradientUnits="userSpaceOnUse">
      <stop offset="0" stop-color="#3c3c42"/>
      <stop offset="1" stop-color="#5c71c7"/>
    </linearGradient>
  </defs>
  <path class="cls-1" d="m1040.23,525.55c.67-67.23-11.53-133.18-36.28-196.01-24.75-62.83-60.8-119.38-107.14-168.1-47.99-50.44-104.96-90.21-169.33-118.2S595.17.72,525.55.03c-67.23-.67-133.18,11.53-196.01,36.28s-119.38,60.8-168.1,107.14c-50.44,47.99-90.21,104.96-118.19,169.33C15.27,377.15.72,445.08.03,514.7c-.67,67.23,11.53,133.18,36.28,196.01,24.75,62.83,60.8,119.39,107.14,168.1,47.99,50.44,104.96,90.21,169.33,118.19,64.37,27.99,132.31,42.53,201.92,43.23,67.23.67,133.18-11.53,196.01-36.28,62.83-24.75,119.39-60.8,168.1-107.14,50.44-47.99,90.21-104.96,118.19-169.33,27.99-64.37,42.53-132.31,43.23-201.92Zm-72.32,167.47l-116.04-50.46c27.76-68.55,44.92-138.79,50.91-206.86l95.54,41.54c1.43,15.87,2.07,31.85,1.91,47.9-.58,57.61-11.44,113.98-32.32,167.87Zm-287.44,147.63l-97.67-42.47c35.87-54.94,70.02-117.84,100.4-185.34l116.02,50.45c-24.8,53.11-55.19,101.86-90.53,145.13-9.18,11.23-18.59,21.97-28.23,32.22Zm-499.8-261.81c7.54-55.36,22.47-110.84,44.4-165.19l116.03,50.45c-28.64,68.25-51.35,136.12-67.07,199.83l-97.67-42.47c.93-14.03,2.36-28.25,4.32-42.62Zm179.11-379.23l97.67,42.47c-35.87,54.94-70.02,117.84-100.4,185.34l-116.03-50.45c24.8-53.11,55.19-101.86,90.53-145.13,9.18-11.23,18.59-21.97,28.23-32.22Zm331.24-122.67l-81.57,187.61-91.59-39.83c16.52-22.83,33.27-43.77,50.05-62.45,47.28-52.63,91.37-82.82,123.11-85.33Zm-97.52,224.29l-83.74,192.58-116.03-50.45c30.58-67.86,64.95-130.77,100.92-185.11l98.84,42.98Zm-99.69,229.27l-83.74,192.58-98.84-42.98c15.2-63.37,37.77-131.41,66.55-200.06l116.03,50.45Zm-99.69,229.27l-81.57,187.61c-19.81-24.93-27.8-77.77-21.56-148.24,2.22-25.01,6.11-51.54,11.54-79.2l91.59,39.83Zm-44.89,203.56l81.57-187.61,91.59,39.83c-16.52,22.83-33.27,43.77-50.05,62.45-47.28,52.63-91.37,82.82-123.12,85.33Zm97.52-224.29l83.74-192.58,116.03,50.45c-30.58,67.86-64.95,130.77-100.92,185.11l-98.84-42.98Zm99.69-229.27l83.74-192.58,98.84,42.98c-15.2,63.37-37.77,131.41-66.55,200.06l-116.03-50.45Zm99.69-229.27l81.57-187.61c19.81,24.93,27.8,77.77,21.56,148.24-2.22,25.01-6.11,51.54-11.54,79.2l-91.59-39.83Zm142.97-35.84c3.78-42.61,2.83-79.5-2.81-109.95,35.01,39.39,59.54,93.41,71.28,158.72,4.75,26.41,7.26,53.91,7.55,82.3l-89.9-39.09c6.63-32.18,11.31-63.02,13.88-91.97Zm-168.62-182.05c-26.12,16.65-53.74,41.11-82.33,72.93-19.42,21.62-38.79,46.08-57.8,72.87l-89.9-39.09c20.96-19.15,42.79-36.06,65.34-50.6,55.77-35.95,112.01-54.86,164.69-56.11Zm-355.46,641.02c-6.63,32.18-11.31,63.02-13.88,91.97-3.78,42.61-2.83,79.5,2.81,109.95-35.01-39.39-59.54-93.41-71.28-158.72-4.75-26.41-7.26-53.91-7.55-82.3l89.9,39.09Zm154.75,274.02c26.12-16.65,53.74-41.11,82.33-72.93,19.42-21.62,38.79-46.08,57.8-72.87l89.9,39.09c-20.96,19.15-42.78,36.06-65.34,50.6-55.77,35.95-112.01,54.86-164.69,56.11Zm279.39-401.49c28.64-68.25,51.35-136.12,67.07-199.83l97.67,42.47c-.93,14.03-2.36,28.24-4.32,42.62-7.54,55.36-22.47,110.84-44.4,165.19l-116.02-50.45Zm267.57-231.96c11.13,28.25,19.5,57.19,25.1,86.6l-86.77-37.73c.7-36.69-1.96-72.49-8.12-106.74-6.38-35.52-16.29-68.23-29.6-97.82.16.17.32.33.48.5,42.78,44.96,76.05,97.17,98.9,155.18ZM344.21,73.53c58.01-22.85,118.89-34.12,180.95-33.5.23,0,.46,0,.69.01-30.71,10.45-61.4,25.51-91.73,45.07-29.25,18.86-57.24,41.33-83.6,66.86l-86.77-37.73c25.33-15.97,52.21-29.58,80.46-40.7Zm-155.18,98.9c11.63-11.07,23.76-21.49,36.33-31.27l95.54,41.54c-45.7,50.8-85.36,111.26-116.57,178.31l-116.04-50.46c25.18-52.02,58.99-98.41,100.73-138.12Zm-116.68,174.8l116.04,50.46c-27.76,68.55-44.92,138.79-50.91,206.86l-95.54-41.54c-1.43-15.87-2.07-31.85-1.91-47.9.58-57.61,11.44-113.98,32.32-167.87Zm1.18,348.81c-11.13-28.25-19.5-57.19-25.1-86.6l86.77,37.73c-.7,36.69,1.96,72.49,8.12,106.74,6.38,35.52,16.29,68.23,29.6,97.82-.16-.17-.32-.33-.48-.5-42.78-44.96-76.05-97.17-98.9-155.18Zm622.52,270.68c-58.01,22.85-118.89,34.12-180.95,33.5-.23,0-.46,0-.69-.01,30.71-10.45,61.4-25.51,91.73-45.07,29.25-18.86,57.24-41.33,83.6-66.86l86.77,37.73c-25.33,15.97-52.21,29.58-80.46,40.7Zm155.18-98.9c-11.63,11.07-23.76,21.49-36.33,31.27l-95.54-41.54c45.7-50.8,85.36-111.26,116.57-178.31l116.04,50.46c-25.18,52.02-58.99,98.41-100.73,138.12Z"/>
</svg>